<?xml version="1.0" encoding="UTF-8" standalone="no"?><!DOCTYPE svg PUBLIC "-//W3C//DTD SVG 1.1//EN" "http://www.w3.org/Graphics/SVG/1.1/DTD/svg11.dtd"><svg width="100%" height="100%" viewBox="0 0 71 29" version="1.1" xmlns="http://www.w3.org/2000/svg" xmlns:xlink="http://www.w3.org/1999/xlink" xml:space="preserve" xmlns:serif="http://www.serif.com/" style="fill-rule:evenodd;clip-rule:evenodd;stroke-linejoin:round;stroke-miterlimit:2;"><g transform="matrix(0.193107,0,0,0.193107,4.37277,-1.00103)"><g transform="matrix(83.3333,0,0,83.3333,14.5595,86.8742)"><path d="M0.624,-0.665c-0.013,-0.005 -0.027,-0.01 -0.043,-0.015l-0.002,-0.001c0,0 -0.001,0 -0.001,0c-0.023,-0.008 -0.047,-0.015 -0.072,-0.021c-0.002,0 -0.004,-0.001 -0.006,-0.001c-0.001,0 -0.002,-0.001 -0.003,-0.001l0,0c-0.037,-0.008 -0.076,-0.011 -0.115,-0.011c-0.208,0 -0.353,0.153 -0.353,0.372c-0.001,0.129 0.056,0.212 0.103,0.26c0.065,0.065 0.156,0.104 0.243,0.104c0.096,0 0.177,-0.036 0.255,-0.114c0.003,-0.003 0.004,-0.006 0.003,-0.009c-0.001,-0.004 -0.004,-0.006 -0.007,-0.007c-0.004,-0.001 -0.007,0 -0.009,0.002c-0.059,0.062 -0.157,0.108 -0.233,0.108c-0.076,0 -0.14,-0.025 -0.189,-0.075c-0.064,-0.064 -0.099,-0.165 -0.098,-0.284l0,0c0,-0.235 0.139,-0.34 0.276,-0.34c0.04,0 0.082,0.008 0.121,0.024l0.01,0.004c0.019,0.008 0.036,0.017 0.053,0.028l0.002,0.001c0.034,0.021 0.062,0.045 0.082,0.07l0.006,0.009l0,-0.094l-0.002,-0.001c-0.007,-0.002 -0.014,-0.005 -0.021,-0.008l0,0Z" style="fill:#594e52;fill-rule:nonzero;"/></g><g transform="matrix(83.3333,0,0,83.3333,71.1428,86.8742)"><path d="M0.255,-0.479l0,-0.001c-0.095,0 -0.226,0.066 -0.226,0.242c0,0.138 0.097,0.239 0.224,0.239c0.096,0 0.227,-0.068 0.227,-0.243c0,-0.137 -0.096,-0.237 -0.225,-0.237Zm0,0.47c-0.108,0 -0.162,-0.115 -0.162,-0.232c0,-0.105 0.029,-0.228 0.16,-0.227c0.11,0 0.164,0.115 0.164,0.234c0,0.101 -0.03,0.225 -0.162,0.225Z" style="fill:#594e52;fill-rule:nonzero;"/></g><g transform="matrix(83.3333,0,0,83.3333,115.56,86.8742)"><path d="M0.041,-0.463l0.019,0.025l0,0.362c0,0.004 0,0.007 0,0.01l0,0.008c0,0.013 -0.003,0.023 -0.009,0.03c-0.006,0.006 -0.01,0.01 -0.014,0.011c-0.003,0.001 -0.006,0.001 -0.008,0.001l0,0.014l0.095,0l0,-0.046c-0.001,-0.003 -0.001,-0.006 -0.001,-0.009l0,-0.003c0,0 0,0 0.001,-0.001l0,-0.361l0.001,-0.068l-0.084,0.027Zm0.448,0.446c-0.005,-0.001 -0.01,-0.005 -0.015,-0.011c-0.005,-0.007 -0.008,-0.017 -0.008,-0.03l0,-0.035c0,-0.001 0,-0.001 0,-0.002l0,-0.236c0,-0.112 -0.11,-0.149 -0.175,-0.149c-0.062,0 -0.122,0.029 -0.167,0.078l0,0.028c0.034,-0.056 0.094,-0.086 0.155,-0.086c0.097,0 0.124,0.078 0.124,0.133l0,0.254l0,0l0,0.015c0,0.013 -0.003,0.023 -0.009,0.03c-0.006,0.006 -0.01,0.01 -0.013,0.011c-0.004,0.001 -0.006,0.001 -0.009,0.001l0,0.014l0.125,0l0,-0.014l-0.008,-0.001Z" style="fill:#594e52;fill-rule:nonzero;"/></g><g transform="matrix(83.3333,0,0,83.3333,159.56,86.8742)"><path d="M0.505,-0.014c-0.004,0 -0.008,-0.004 -0.014,-0.011c-0.006,-0.007 -0.009,-0.016 -0.009,-0.029l0,-0.008c0,-0.003 0,-0.007 0,-0.01l0,-0.656l0.018,-0.025l-0.018,-0.006l0,0l-0.065,-0.021l0.001,0.356c-0.056,-0.039 -0.105,-0.056 -0.157,-0.056c-0.11,-0.001 -0.232,0.076 -0.232,0.246c0,0.149 0.124,0.233 0.232,0.233c0.051,0 0.095,-0.014 0.155,-0.068c0,0.002 0.001,0.003 0.002,0.005l0,0.007l0.001,0.003c0,0.004 0,0.007 -0.001,0.01l0,0.046l0.095,0l0,-0.014c-0.002,0 -0.005,-0.001 -0.008,-0.002l0,0Zm-0.087,-0.385l0,0.307c-0.035,0.041 -0.088,0.075 -0.159,0.075c-0.122,0.002 -0.16,-0.124 -0.16,-0.223c0,-0.12 0.039,-0.223 0.172,-0.223c0.061,0 0.11,0.03 0.147,0.062l0,0.001l0,0.001Z" style="fill:#594e52;fill-rule:nonzero;"/></g><g transform="matrix(83.3333,0,0,83.3333,207.643,86.8742)"><path d="M0.476,-0.4c0,-0.003 0,-0.007 0,-0.01l0,-0.008c0,-0.013 0.003,-0.022 0.009,-0.029c0.006,-0.007 0.011,-0.011 0.014,-0.012c0.003,0 0.006,-0.001 0.008,-0.001l0,-0.014l-0.095,0l0,0.38c-0.048,0.044 -0.108,0.075 -0.16,0.075c-0.066,0.001 -0.116,-0.044 -0.116,-0.124l0,-0.256l0,-0.008l0.002,-0.068l-0.084,0.027l0.019,0.025l0,0.039c0,0 0,0 0,0.001l0,0.221c0,0.106 0.068,0.163 0.16,0.163c0.075,0 0.132,-0.034 0.179,-0.072l0,0.01l0.001,0.004c0,0.003 0,0.006 -0.001,0.009l0,0.046l0.095,0l0,-0.014c-0.002,0 -0.005,0 -0.008,-0.001c-0.003,-0.001 -0.008,-0.005 -0.014,-0.011c-0.006,-0.007 -0.009,-0.017 -0.009,-0.03l0,-0.008c0,-0.003 0,-0.006 0,-0.01l0,-0.324Z" style="fill:#594e52;fill-rule:nonzero;"/></g><g transform="matrix(83.3333,0,0,83.3333,254.476,86.8742)"><path d="M0.203,-0.015c-0.005,-0.001 -0.01,-0.005 -0.015,-0.012c-0.005,-0.006 -0.008,-0.016 -0.008,-0.029l0,-0.348l0,0l0,-0.019l0.001,-0.067l-0.084,0.027l0.019,0.025l0,0.362c0,0.003 0,0.007 0,0.01l0,0.008c0,0.012 -0.003,0.022 -0.009,0.029c-0.006,0.007 -0.01,0.01 -0.014,0.011c-0.003,0.001 -0.006,0.002 -0.008,0.002l0,0.016l0.126,0l0,-0.014l-0.008,-0.001Zm-0.054,-0.546c0.022,0 0.039,-0.016 0.038,-0.038c-0.001,-0.022 -0.018,-0.039 -0.039,-0.038c-0.023,0.001 -0.04,0.018 -0.039,0.039c0.001,0.022 0.018,0.038 0.04,0.037l0,0Z" style="fill:#594e52;fill-rule:nonzero;"/></g><g transform="matrix(83.3333,0,0,83.3333,277.726,86.8742)"><path d="M0.314,-0.062c-0.026,0.035 -0.059,0.049 -0.085,0.049c-0.024,0 -0.054,-0.023 -0.054,-0.125l-0.001,-0.32l0.131,0l0,-0.015l-0.131,-0.001l0,-0.063l0,-0.024l0.001,-0.068l-0.084,0.027l0.019,0.025l0,0.103l-0.056,0l0,0.015l0.056,0.001l0,0.281c0,0.12 0.021,0.178 0.106,0.178c0.053,0 0.075,-0.017 0.108,-0.053l-0.01,-0.01Z" style="fill:#594e52;fill-rule:nonzero;"/></g><g transform="matrix(37.5,0,0,37.5,14.5595,124.374)"><path d="M0.085,-0.681l0.01,0.002c0.003,0 0.007,0.002 0.011,0.007c0.004,0.004 0.006,0.011 0.006,0.019l0,0.602c0,0.009 -0.003,0.015 -0.007,0.019c-0.006,0.006 -0.009,0.008 -0.01,0.008c-0.003,0 -0.005,0.001 -0.006,0.001l-0.004,0l0,0.017l0.115,0l0,-0.017l-0.01,-0.001c-0.003,-0.001 -0.007,-0.003 -0.01,-0.007c-0.004,-0.005 -0.006,-0.011 -0.006,-0.02l0,-0.602l0.001,-0.008c0,-0.004 0.002,-0.009 0.006,-0.013c0.004,-0.004 0.009,-0.006 0.016,-0.006l0.003,0l0,-0.018l-0.115,0l0,0.017Z" style="fill:#594e52;fill-rule:nonzero;"/></g><g transform="matrix(37.5,0,0,37.5,25.3595,124.374)"><path d="M0.747,-0.017c-0.005,-0.001 -0.01,-0.005 -0.015,-0.011c-0.005,-0.007 -0.008,-0.017 -0.008,-0.03l0,-0.036l0,0c0,0 0,0 0,-0.001l0.002,-0.244c0,-0.112 -0.103,-0.14 -0.157,-0.14c-0.068,-0.001 -0.122,0.041 -0.155,0.086c-0.027,-0.067 -0.103,-0.086 -0.147,-0.086c-0.051,-0.001 -0.11,0.027 -0.143,0.072l0,-0.015l0.001,-0.068l-0.084,0.027l0.019,0.025l0,0.362c0,0.004 0,0.007 0,0.01l0,0.008c0,0.013 -0.003,0.023 -0.009,0.03c-0.006,0.006 -0.011,0.01 -0.014,0.011c-0.003,0.001 -0.006,0.001 -0.008,0.001l0,0.014l0.095,0l0,-0.046c-0.001,-0.003 -0.001,-0.006 -0.001,-0.009l0,-0.003c0,0 0,0 0.001,-0.001l0,-0.323c0.029,-0.047 0.087,-0.079 0.131,-0.079c0.094,0 0.105,0.072 0.105,0.126l0,0.264l0,0.015c0,0.013 -0.003,0.023 -0.009,0.03c-0.006,0.006 -0.01,0.01 -0.013,0.011c-0.004,0.001 -0.006,0.001 -0.009,0.001l0,0.014l0.125,0l0,-0.014l-0.007,-0.001c-0.006,-0.001 -0.011,-0.005 -0.016,-0.011c-0.005,-0.007 -0.007,-0.017 -0.007,-0.03l0,-0.036l-0.001,0c0,0 0,0 0,-0.001l0,-0.253c0,-0.062 0.074,-0.116 0.131,-0.116c0.096,0.001 0.107,0.073 0.107,0.127l0.001,0.263l0,0.016c0,0.013 -0.003,0.023 -0.009,0.03c-0.005,0.006 -0.01,0.01 -0.013,0.011c-0.003,0.001 -0.006,0.001 -0.008,0.001l0,0.014l0.123,0l0,-0.014l-0.008,-0.001Z" style="fill:#594e52;fill-rule:nonzero;"/></g><g transform="matrix(37.5,0,0,37.5,56.0345,124.374)"><path d="M0.28,-0.478c-0.049,0 -0.09,0.011 -0.155,0.068l0,-0.08l-0.084,0.027l0.019,0.025l0,0.656c0,0.003 0,0.007 0,0.01l0,0.008c0,0.013 -0.003,0.022 -0.009,0.029c-0.006,0.007 -0.01,0.01 -0.014,0.011c-0.003,0.001 -0.006,0.002 -0.008,0.002l0,0.014l0.095,0l0,-0.046c-0.001,-0.003 -0.001,-0.006 -0.001,-0.01l0,-0.002c0,-0.001 0,-0.001 0.001,-0.001l0,-0.289c0.055,0.041 0.105,0.058 0.156,0.058c0.11,0 0.232,-0.077 0.232,-0.247c0,-0.148 -0.123,-0.231 -0.232,-0.233l0,0Zm-0.009,0.461c-0.061,0 -0.11,-0.029 -0.147,-0.06l0,-0.002l0,0l0,-0.108l0.001,-0.2c0.035,-0.043 0.087,-0.076 0.158,-0.076c0.122,0 0.159,0.125 0.159,0.225c0,0.118 -0.038,0.22 -0.171,0.221l0,0Z" style="fill:#594e52;fill-rule:nonzero;"/></g><g transform="matrix(37.5,0,0,37.5,76.3595,124.374)"><path d="M0.17,-0.015c-0.005,-0.001 -0.01,-0.005 -0.015,-0.012c-0.005,-0.006 -0.008,-0.016 -0.008,-0.029l0,-0.64l0,0l0,-0.018l0.001,-0.068l-0.084,0.027l0.019,0.025l0,0.654c0,0.003 0,0.007 0,0.01l0,0.008c0,0.012 -0.003,0.022 -0.009,0.029c-0.006,0.007 -0.01,0.01 -0.014,0.011c-0.003,0.001 -0.006,0.002 -0.008,0.002l0,0.016l0.126,0l0,-0.014l-0.008,-0.001Z" style="fill:#594e52;fill-rule:nonzero;"/></g><g transform="matrix(37.5,0,0,37.5,84.347,124.374)"><path d="M0.628,-0.343l-0.062,0.093l0,0.171c0,0.003 0,0.007 0,0.01l0,0.008c0,0.013 -0.003,0.023 -0.009,0.03c-0.006,0.007 -0.011,0.011 -0.014,0.012c-0.003,0 -0.006,0.001 -0.009,0.001l0,0.014l0.097,0l0,-0.046c-0.001,-0.004 -0.001,-0.007 -0.001,-0.01l0,-0.003c0,0 0,-0.001 0.001,-0.001l0,-0.283l-0.001,0.002c-0.001,0 -0.001,0.001 -0.002,0.002l0,0Zm0.72,0.323c-0.005,-0.001 -0.01,-0.005 -0.015,-0.012c-0.005,-0.007 -0.008,-0.016 -0.008,-0.029l0,-0.036c0,-0.001 0,-0.001 0,-0.002l0,-0.238c0,-0.114 -0.111,-0.151 -0.177,-0.151c-0.058,0 -0.114,0.026 -0.159,0.069l-0.005,0.005c0,0 0,0 0,0c-0.001,0.002 -0.003,0.004 -0.004,0.006c0,0 -0.001,0 -0.001,0l0,-0.001c0,0 -0.007,0.009 -0.012,0.016c-0.03,-0.07 -0.113,-0.095 -0.166,-0.095c-0.059,0 -0.115,0.026 -0.159,0.069l-0.005,0.005c0,0 0,0 0,0c-0.002,0.002 -0.003,0.004 -0.005,0.006c0,0 0,0 0,0l0,-0.001c0,0 -0.001,0.001 -0.001,0.001l0,-0.024l0.001,-0.07l-0.085,0.028l0.019,0.025l0,0.142c-0.039,0.056 -0.088,0.126 -0.126,0.176c-0.044,0.06 -0.09,0.088 -0.118,0.101c-0.001,0 -0.001,0 -0.001,0.001c0,0 0,0 0,0c-0.009,0.003 -0.018,0.007 -0.027,0.009c-0.001,0 -0.001,0 -0.002,0c-0.014,0.004 -0.027,0.006 -0.04,0.006c-0.072,0 -0.157,-0.054 -0.157,-0.235c0,-0.01 0,-0.023 0.001,-0.03l0.357,-0.001c0.002,-0.006 0.003,-0.012 0.003,-0.017c0,-0.103 -0.076,-0.192 -0.205,-0.193c-0.084,0 -0.222,0.07 -0.222,0.257c0,0.122 0.076,0.234 0.216,0.233c0.013,0 0.027,-0.001 0.039,-0.004l0.001,0l-0.001,0c0.001,0 0.001,0 0.001,0l0.001,0c0.004,-0.001 0.008,-0.002 0.011,-0.003c0.026,-0.006 0.05,-0.017 0.072,-0.031c0.01,-0.006 0.019,-0.014 0.028,-0.021l0.002,-0.003c0.007,-0.006 0.013,-0.011 0.019,-0.017c0.011,-0.008 0.075,-0.097 0.075,-0.097c0.025,-0.035 0.051,-0.071 0.073,-0.103c0.026,-0.038 0.047,-0.071 0.057,-0.088l0,0c0.005,-0.007 0.008,-0.012 0.008,-0.012l0,0l0.011,-0.016l0.007,-0.009c0.035,-0.042 0.087,-0.064 0.14,-0.064c0.097,0 0.124,0.079 0.124,0.135l0,0.256l0.001,0l0,0.016c0,0.013 -0.003,0.022 -0.009,0.029c-0.006,0.007 -0.011,0.011 -0.014,0.012c-0.003,0 -0.006,0.001 -0.008,0.001l0,0.014l0.125,0l0,-0.014l-0.008,-0.001c-0.005,-0.001 -0.01,-0.005 -0.015,-0.012c-0.005,-0.007 -0.008,-0.016 -0.008,-0.029l0,-0.036c0,-0.001 0,-0.001 0,-0.002l0,-0.238c0,-0.012 -0.001,-0.023 -0.003,-0.033c0.003,-0.006 0.006,-0.011 0.009,-0.016l0.009,-0.013l0.005,-0.005c0.035,-0.042 0.087,-0.064 0.139,-0.064c0.098,0 0.125,0.079 0.125,0.135l0,0.256l0,0l0,0.016c0,0.013 -0.003,0.022 -0.008,0.029c-0.006,0.007 -0.011,0.011 -0.014,0.012c-0.004,0 -0.006,0.001 -0.009,0.001l0,0.014l0.126,0l0,-0.014l-0.008,-0.001Zm-1.1,-0.459c0.092,0.001 0.138,0.085 0.138,0.149c-0.002,0.009 -0.002,0.026 -0.007,0.033l-0.282,0c0.014,-0.103 0.071,-0.181 0.151,-0.182l0,0Z" style="fill:#594e52;fill-rule:nonzero;"/></g><g transform="matrix(37.5,0,0,37.5,136.36,124.374)"><path d="M0.653,-0.343l-0.062,0.093l0,0.171c0,0.003 0,0.007 0,0.01l0,0.008c0,0.013 -0.003,0.023 -0.009,0.03c-0.006,0.007 -0.011,0.011 -0.014,0.012c-0.003,0 -0.006,0.001 -0.009,0.001l0,0.014l0.097,0l0,-0.046c-0.001,-0.004 -0.001,-0.007 -0.001,-0.01l0,-0.003c0,0 0,-0.001 0.001,-0.001l0,-0.283l-0.001,0.002c-0.001,0 -0.001,0.001 -0.002,0.002l0,0Zm0.372,0.323c-0.005,-0.001 -0.01,-0.005 -0.015,-0.012c-0.005,-0.007 -0.008,-0.016 -0.008,-0.029l0,-0.036c0,-0.001 0,-0.001 0,-0.002l0,-0.238c0,-0.114 -0.111,-0.151 -0.176,-0.151c-0.059,0 -0.115,0.026 -0.159,0.069l-0.005,0.005c0,0 0,0 0,0c-0.002,0.002 -0.003,0.004 -0.005,0.006c0,0 0,0 0,0l0,-0.001c0,0 -0.001,0.001 -0.001,0.001l0,-0.024l0.001,-0.07l-0.085,0.028l0.019,0.025l0,0.142c-0.039,0.056 -0.088,0.126 -0.126,0.176c-0.044,0.06 -0.09,0.088 -0.118,0.101c-0.001,0 -0.001,0 -0.001,0.001c0,0 0,0 0,0c-0.009,0.003 -0.018,0.007 -0.027,0.009c-0.001,0 -0.001,0 -0.002,0c-0.014,0.004 -0.027,0.006 -0.04,0.006c-0.072,0 -0.157,-0.054 -0.157,-0.235c0,-0.01 0,-0.023 0.001,-0.03l0.357,-0.001c0.002,-0.006 0.003,-0.012 0.003,-0.017c0,-0.103 -0.076,-0.192 -0.205,-0.193c-0.084,0 -0.222,0.07 -0.222,0.257c0,0.122 0.076,0.234 0.216,0.233c0.013,0 0.027,-0.001 0.039,-0.004l0.001,0l-0.001,0c0.001,0 0.001,0 0.001,0l0.001,0c0.004,-0.001 0.008,-0.002 0.011,-0.003c0.026,-0.006 0.05,-0.017 0.072,-0.031c0.01,-0.006 0.019,-0.014 0.028,-0.021l0.002,-0.003c0.007,-0.006 0.013,-0.011 0.019,-0.017c0.011,-0.008 0.075,-0.097 0.075,-0.097c0.025,-0.035 0.051,-0.071 0.073,-0.103c0.026,-0.038 0.047,-0.071 0.057,-0.088l0,0c0.005,-0.007 0.008,-0.012 0.008,-0.012l0,0l0.011,-0.016l0.007,-0.009c0.035,-0.042 0.087,-0.064 0.14,-0.064c0.097,0 0.124,0.079 0.124,0.135l0,0.256l0.001,0l0,0.016c0,0.013 -0.003,0.022 -0.009,0.029c-0.006,0.007 -0.011,0.011 -0.014,0.012c-0.003,0 -0.006,0.001 -0.008,0.001l0,0.014l0.125,0l0,-0.014l-0.008,-0.001Zm-0.752,-0.459c0.092,0.001 0.138,0.085 0.138,0.149c-0.002,0.009 -0.002,0.026 -0.007,0.033l-0.282,0c0.014,-0.103 0.071,-0.181 0.151,-0.182l0,0Z" style="fill:#594e52;fill-rule:nonzero;"/></g><g transform="matrix(37.5,0,0,37.5,176.297,124.374)"><path d="M0.314,-0.062c-0.026,0.035 -0.059,0.049 -0.085,0.049c-0.024,0 -0.054,-0.023 -0.054,-0.125l-0.001,-0.32l0.131,0l0,-0.015l-0.131,-0.001l0,-0.063l0,-0.024l0.001,-0.068l-0.084,0.027l0.019,0.025l0,0.103l-0.056,0l0,0.015l0.056,0.001l0,0.281c0,0.12 0.021,0.178 0.106,0.178c0.053,0 0.075,-0.017 0.108,-0.053l-0.01,-0.01Z" style="fill:#594e52;fill-rule:nonzero;"/></g><g transform="matrix(37.5,0,0,37.5,189.235,124.374)"><path d="M0.428,-0.018c-0.005,-0.001 -0.01,-0.004 -0.015,-0.011c-0.004,-0.006 -0.007,-0.016 -0.007,-0.028l0,-0.264c0,-0.105 -0.101,-0.159 -0.167,-0.159c-0.029,0 -0.054,0.005 -0.078,0.011l-0.024,0.005l-0.052,0.013l0,0.061c0.016,-0.02 0.035,-0.036 0.051,-0.047c0.001,-0.001 0.003,-0.003 0.005,-0.004c0.009,-0.005 0.016,-0.01 0.021,-0.012c0.004,-0.002 0.006,-0.004 0.006,-0.004c0.019,-0.008 0.038,-0.013 0.058,-0.013c0.065,0.001 0.117,0.056 0.117,0.112l0,0.085c-0.046,-0.014 -0.102,-0.025 -0.15,-0.025c-0.113,0 -0.164,0.08 -0.164,0.152c0,0.072 0.047,0.147 0.14,0.147c0.068,0 0.127,-0.028 0.167,-0.059c0.002,0.003 0.004,0.007 0.007,0.01c-0.001,0.008 -0.004,0.014 -0.008,0.019c-0.006,0.007 -0.011,0.01 -0.014,0.011c-0.003,0.001 -0.006,0.002 -0.008,0.002l0,0.014l0.123,0l0,-0.014l-0.008,-0.002Zm-0.233,0.004c-0.045,0.001 -0.103,-0.037 -0.103,-0.122c0,-0.109 0.048,-0.148 0.124,-0.148c0.044,0 0.094,0.016 0.127,0.029l0,0.174c-0.041,0.033 -0.111,0.067 -0.148,0.067l0,0Z" style="fill:#594e52;fill-rule:nonzero;"/></g><g transform="matrix(37.5,0,0,37.5,205.247,124.374)"><path d="M0.314,-0.062c-0.026,0.035 -0.059,0.049 -0.085,0.049c-0.024,0 -0.054,-0.023 -0.054,-0.125l-0.001,-0.32l0.131,0l0,-0.015l-0.131,-0.001l0,-0.063l0,-0.024l0.001,-0.068l-0.084,0.027l0.019,0.025l0,0.103l-0.056,0l0,0.015l0.056,0.001l0,0.281c0,0.12 0.021,0.178 0.106,0.178c0.053,0 0.075,-0.017 0.108,-0.053l-0.01,-0.01Z" style="fill:#594e52;fill-rule:nonzero;"/></g><g transform="matrix(37.5,0,0,37.5,217.397,124.374)"><path d="M0.203,-0.015c-0.005,-0.001 -0.01,-0.005 -0.015,-0.012c-0.005,-0.006 -0.008,-0.016 -0.008,-0.029l0,-0.348l0,0l0,-0.019l0.001,-0.067l-0.084,0.027l0.019,0.025l0,0.362c0,0.003 0,0.007 0,0.01l0,0.008c0,0.012 -0.003,0.022 -0.009,0.029c-0.006,0.007 -0.01,0.01 -0.014,0.011c-0.003,0.001 -0.006,0.002 -0.008,0.002l0,0.016l0.126,0l0,-0.014l-0.008,-0.001Zm-0.054,-0.546c0.022,0 0.039,-0.016 0.038,-0.038c-0.001,-0.022 -0.018,-0.039 -0.039,-0.038c-0.023,0.001 -0.04,0.018 -0.039,0.039c0.001,0.022 0.018,0.038 0.04,0.037l0,0Z" style="fill:#594e52;fill-rule:nonzero;"/></g><g transform="matrix(37.5,0,0,37.5,227.485,124.374)"><path d="M0.255,-0.479l0,-0.001c-0.095,0 -0.226,0.066 -0.226,0.242c0,0.138 0.097,0.239 0.224,0.239c0.096,0 0.227,-0.068 0.227,-0.243c0,-0.137 -0.096,-0.237 -0.225,-0.237Zm0,0.47c-0.108,0 -0.162,-0.115 -0.162,-0.232c0,-0.105 0.029,-0.228 0.16,-0.227c0.11,0 0.164,0.115 0.164,0.234c0,0.101 -0.03,0.225 -0.162,0.225Z" style="fill:#594e52;fill-rule:nonzero;"/></g><g transform="matrix(37.5,0,0,37.5,247.472,124.374)"><path d="M0.041,-0.463l0.019,0.025l0,0.362c0,0.004 0,0.007 0,0.01l0,0.008c0,0.013 -0.003,0.023 -0.009,0.03c-0.006,0.006 -0.01,0.01 -0.014,0.011c-0.003,0.001 -0.006,0.001 -0.008,0.001l0,0.014l0.095,0l0,-0.046c-0.001,-0.003 -0.001,-0.006 -0.001,-0.009l0,-0.003c0,0 0,0 0.001,-0.001l0,-0.361l0.001,-0.068l-0.084,0.027Zm0.448,0.446c-0.005,-0.001 -0.01,-0.005 -0.015,-0.011c-0.005,-0.007 -0.008,-0.017 -0.008,-0.03l0,-0.035c0,-0.001 0,-0.001 0,-0.002l0,-0.236c0,-0.112 -0.11,-0.149 -0.175,-0.149c-0.062,0 -0.122,0.029 -0.167,0.078l0,0.028c0.034,-0.056 0.094,-0.086 0.155,-0.086c0.097,0 0.124,0.078 0.124,0.133l0,0.254l0,0l0,0.015c0,0.013 -0.003,0.023 -0.009,0.03c-0.006,0.006 -0.01,0.01 -0.013,0.011c-0.004,0.001 -0.006,0.001 -0.009,0.001l0,0.014l0.125,0l0,-0.014l-0.008,-0.001Z" style="fill:#594e52;fill-rule:nonzero;"/></g><g transform="matrix(37.5,0,0,37.5,267.272,124.374)"><path d="M0.075,-0.38c0,-0.035 0.031,-0.09 0.093,-0.089c0.005,0 0.01,0 0.015,0.001l0.005,0.001c0.004,0.001 0.01,0.003 0.017,0.006c0.024,0.008 0.063,0.027 0.097,0.066l0,-0.053c-0.008,-0.004 -0.016,-0.008 -0.024,-0.011c-0.012,-0.005 -0.025,-0.009 -0.036,-0.011c-0.008,-0.002 -0.015,-0.004 -0.022,-0.005c-0.003,0 -0.007,-0.001 -0.01,-0.001c0,0 -0.001,0 -0.001,0c-0.001,-0.001 -0.002,-0.001 -0.003,-0.001c-0.001,0 -0.001,0 -0.001,0c-0.002,0 -0.004,0 -0.006,-0.001c0,0 0,0 0,0c-0.002,0 -0.004,0 -0.006,0c-0.004,-0.001 -0.007,-0.001 -0.007,-0.001c-0.004,0 -0.007,0 -0.011,0c-0.094,-0.001 -0.132,0.074 -0.132,0.134c0.002,0.152 0.262,0.129 0.261,0.234c0,0.071 -0.061,0.101 -0.106,0.101c-0.024,0 -0.048,-0.008 -0.069,-0.02l0,0c0,-0.001 -0.003,-0.002 -0.007,-0.005c-0.005,-0.003 -0.01,-0.006 -0.014,-0.01c-0.001,0 -0.001,0 -0.001,0c-0.023,-0.016 -0.057,-0.042 -0.077,-0.069l-0.001,0.068l0,0.009c0.016,0.009 0.036,0.016 0.053,0.021l0.017,0.005c0.003,0 0.006,0.001 0.009,0.002c0.011,0.002 0.019,0.004 0.024,0.004l0.004,0.001c0.019,0.003 0.039,0.005 0.057,0.005c0.09,0 0.144,-0.063 0.144,-0.141c0,-0.15 -0.262,-0.116 -0.262,-0.24l0,0Z" style="fill:#594e52;fill-rule:nonzero;"/></g></g></svg>